<?xml version="1.0" encoding="UTF-8"?>
<svg version="1.1" xmlns="http://www.w3.org/2000/svg" width="1024" height="1024">
<path d="M0 0 C337.92 0 675.84 0 1024 0 C1024 337.92 1024 675.84 1024 1024 C686.08 1024 348.16 1024 0 1024 C0 686.08 0 348.16 0 0 Z " fill="#090909" transform="translate(0,0)"/>
<path d="M0 0 C37.95 0 75.9 0 115 0 C117.02741536 6.08224608 118.85187667 12.00373452 120.35546875 18.20703125 C120.57382889 19.0959758 120.79218903 19.98492035 121.01716614 20.90080261 C121.74485265 23.87034951 122.46641412 26.84134388 123.1875 29.8125 C123.44233154 30.85688232 123.69716309 31.90126465 123.9597168 32.97729492 C129.11115045 54.09011637 134.0739385 75.24672018 139.03240967 96.40545654 C144.73755834 120.74732865 150.60307001 145.04572912 156.59863281 169.31787109 C159.44752262 180.85848734 162.26090222 192.4078428 165.08081055 203.95556641 C165.30680435 204.88101257 165.53279816 205.80645874 165.76564026 206.75994873 C166.21364368 208.59461111 166.6615915 210.42928706 167.10948181 212.26397705 C168.26533383 216.99741224 169.42418938 221.73008647 170.58778381 226.46162415 C174.48235287 242.30397304 178.28395447 258.16722169 182.0234375 274.046875 C182.20367777 274.81221117 182.38391804 275.57754734 182.56962013 276.36607552 C184.06918511 282.73414621 185.56819957 289.1023466 187.06663132 295.47068405 C193.90745009 324.5698416 193.90745009 324.5698416 201.13671875 353.57446289 C204.31739569 366.00840767 207.10977812 378.4757052 210 391 C216.27 417.4 222.54 443.8 229 471 C229.33 315.57 229.66 160.14 230 0 C265.31 0 300.62 0 337 0 C337 155.43 337 310.86 337 471 C395.74 471 454.48 471 515 471 C515 506.31 515 541.62 515 578 C393.23 578 271.46 578 146 578 C122 478 122 478 117 457 C60.9 457 4.8 457 -53 457 C-59.6 475.81 -66.2 494.62 -73 514 C-76.48622557 523.79702396 -79.97605167 533.59167584 -83.5 543.375 C-84.29055262 545.57545329 -85.08091512 547.77597489 -85.87109375 549.9765625 C-89.22939176 559.32436342 -92.60553042 568.66520866 -96 578 C-132.63 578 -169.26 578 -207 578 C-206.34801427 574.08808562 -205.85425723 571.19337952 -204.55151367 567.61767578 C-204.10667381 566.38450371 -204.10667381 566.38450371 -203.65284729 565.12641907 C-203.16533241 563.79927132 -203.16533241 563.79927132 -202.66796875 562.4453125 C-202.32462997 561.49734299 -201.9812912 560.54937347 -201.62754822 559.57267761 C-200.87969709 557.50951995 -200.1295055 555.44720951 -199.3772583 553.38565063 C-197.74366913 548.90863749 -196.12116659 544.427632 -194.49810791 539.9467926 C-193.63973095 537.57715751 -192.78079324 535.20772547 -191.92132568 532.83848572 C-187.69189043 521.17279706 -183.52620411 509.48470923 -179.36480713 497.7946167 C-171.84789302 476.68264571 -164.23573238 455.60724464 -156.55545044 434.55419922 C-149.91068486 416.33278186 -143.38824228 398.0709522 -136.93408203 379.78125 C-132.64604576 367.63179296 -128.31313694 355.50019268 -123.92169189 343.38775635 C-120.40585297 333.68838413 -116.91668014 323.97989706 -113.453125 314.26171875 C-113.04966354 313.12970535 -112.64620209 311.99769196 -112.23051453 310.83137512 C-111.39301646 308.4812931 -110.5555485 306.13120035 -109.71810913 303.78109741 C-102.51069804 283.55593016 -95.23626159 263.35718091 -87.875 243.1875 C-80.1919138 222.13342007 -72.67798512 201.02402367 -65.2419281 179.8815918 C-64.69871666 178.33725464 -64.69871666 178.33725464 -64.14453125 176.76171875 C-63.78750626 175.7466626 -63.43048126 174.73160645 -63.06263733 173.68579102 C-58.45042626 160.58331388 -53.74827195 147.51338271 -49.04071045 134.44493103 C-45.99988864 126.00315514 -42.96624688 117.55880275 -39.93289757 109.11433983 C-37.21332134 101.54340461 -34.4933173 93.97262438 -31.77124023 86.40258789 C-30.78238263 83.65250892 -29.79353251 80.90242725 -28.8046875 78.15234375 C-28.43844993 77.13382796 -28.43844993 77.13382796 -28.06481361 76.0947361 C-25.02988593 67.65401143 -21.99963071 59.21164022 -18.97583008 50.766922 C-17.32896275 46.16846886 -15.67984574 41.57082432 -14.03039551 36.97329712 C-13.27074598 34.85404349 -12.51216954 32.73440485 -11.75476074 30.61434937 C-10.71170212 27.69501284 -9.66485096 24.77706157 -8.6171875 21.859375 C-8.32232452 21.03091568 -8.02746155 20.20245636 -7.72366333 19.34889221 C-5.35949852 12.78350727 -2.69456773 6.46696256 0 0 Z " fill="#FEFEFE" transform="translate(372,206)"/>
<path d="M0 0 C1.89725031 2.84587546 2.48226633 4.4054549 3.21411133 7.65258789 C3.54209717 9.08655159 3.54209717 9.08655159 3.87670898 10.54948425 C4.10946533 11.59663101 4.34222168 12.64377777 4.58203125 13.72265625 C4.83243164 14.82599808 5.08283203 15.9293399 5.34082031 17.06611633 C6.17073542 20.73024555 6.99163415 24.39633382 7.8125 28.0625 C8.39165767 30.62788292 8.97133665 33.1931482 9.55151367 35.75830078 C11.22535231 43.16556385 12.88789472 50.57534032 14.54846191 57.98558807 C15.28292534 61.26219292 16.01847186 64.53855435 16.75390625 67.81494141 C18.9942334 77.79777221 21.23296087 87.78095713 23.46508789 97.765625 C26.00823167 109.13904511 28.55886487 120.51026966 31.17163086 131.86791992 C35.92336362 152.55414795 40.4475327 173.26098231 45 194 C8.37 194 -28.26 194 -66 194 C-64.04288234 186.82390191 -62.02604144 179.87028878 -59.55859375 172.8828125 C-59.07333725 171.49384262 -59.07333725 171.49384262 -58.57827759 170.07681274 C-57.89026608 168.10886014 -57.20057551 166.14149383 -56.50930786 164.17468262 C-55.41672837 161.06589716 -54.32873021 157.95554143 -53.24194336 154.84472656 C-51.80296798 150.72640602 -50.36260842 146.60857495 -48.92089844 142.49121094 C-46.61957117 135.91603019 -44.33360069 129.33569065 -42.0625 122.75 C-41.5053833 121.13544922 -41.5053833 121.13544922 -40.93701172 119.48828125 C-38.26934874 111.73658596 -35.63189988 103.9748341 -33 96.2109375 C-31.5209931 91.84890414 -30.04182139 87.48692672 -28.5625 83.125 C-28.19254913 82.03391937 -27.82259827 80.94283875 -27.44143677 79.81869507 C-22.63638079 65.65497818 -17.75120273 51.52671606 -12.70410156 37.44750977 C-8.26544582 25.03222697 -4.10922416 12.52782203 0 0 Z " fill="#0A0A0A" transform="translate(421,365)"/>
<path d="M0 0 C22.14797429 -0.02332673 44.29594656 -0.04097806 66.44393063 -0.05181217 C76.72686612 -0.05697561 87.009794 -0.06401922 97.29272461 -0.07543945 C106.2519195 -0.08538483 115.21110887 -0.09185308 124.17030913 -0.09408849 C128.91720071 -0.09539585 133.66407652 -0.09848327 138.41096306 -0.10573006 C142.87353026 -0.11248797 147.33607509 -0.11461743 151.79864693 -0.11310768 C153.44142401 -0.11338411 155.08420181 -0.11539059 156.72697449 -0.11920547 C158.95997371 -0.12413916 161.19288709 -0.12299951 163.42588806 -0.12025452 C164.67860473 -0.12117631 165.93132139 -0.1220981 167.22199917 -0.12304783 C170 0 170 0 171 1 C171.04080783 2.99958364 171.04254356 5.00045254 171 7 C169 4 169 4 169 2 C113.23 2.33 57.46 2.66 0 3 C0 2.01 0 1.02 0 0 Z " fill="#020202" transform="translate(319,662)"/>
<path d="M0 0 C1.76176836 3.2018225 2.73351329 6.33606792 3.625 9.875 C3.88539063 10.88304687 4.14578125 11.89109375 4.4140625 12.9296875 C5.00582246 16.0305097 5.10338133 18.85156869 5 22 C3.25674553 19.3851183 2.58412043 17.9946567 1.875 15.0625 C1.70742188 14.39347656 1.53984375 13.72445312 1.3671875 13.03515625 C1 11 1 11 1 7 C0.34 7 -0.32 7 -1 7 C-1.04254356 5.00045254 -1.04080783 2.99958364 -1 1 C-0.67 0.67 -0.34 0.34 0 0 Z " fill="#111111" transform="translate(505,730)"/>
<path d="M0 0 C2.09715785 3.14573677 2.52004559 5.01456251 3.125 8.6875 C3.29257812 9.68136719 3.46015625 10.67523438 3.6328125 11.69921875 C3.75398438 12.45847656 3.87515625 13.21773438 4 14 C3.01 13.67 2.02 13.34 1 13 C0.3125 10.9375 0.3125 10.9375 0 9 C-0.99 9.66 -1.98 10.32 -3 11 C-2.01 7.37 -1.02 3.74 0 0 Z " fill="#151515" transform="translate(421,365)"/>
<path d="M0 0 C0.66 0 1.32 0 2 0 C2 1.32 2 2.64 2 4 C2.66 4 3.32 4 4 4 C5.25 11.625 5.25 11.625 3 15 C2.49564306 13.0636296 1.99666126 11.12585854 1.5 9.1875 C1.2215625 8.10855469 0.943125 7.02960937 0.65625 5.91796875 C0 3 0 3 0 0 Z " fill="#171818" transform="translate(576,574)"/>
<path d="M0 0 C0.66 0 1.32 0 2 0 C4.28571429 8.42857143 4.28571429 8.42857143 4 13 C3.01 13.495 3.01 13.495 2 14 C1.33333333 9.33333333 0.66666667 4.66666667 0 0 Z " fill="#1A191A" transform="translate(495,692)"/>
<path d="M0 0 C1.67110042 2.96178773 2.32682752 5.37071192 2.625 8.75 C2.69976562 9.54921875 2.77453125 10.3484375 2.8515625 11.171875 C2.90054687 11.77515625 2.94953125 12.3784375 3 13 C2.01 13.495 2.01 13.495 1 14 C0.63794536 12.04310963 0.28558579 10.08442332 -0.0625 8.125 C-0.25972656 7.03445313 -0.45695312 5.94390625 -0.66015625 4.8203125 C-1 2 -1 2 0 0 Z " fill="#111011" transform="translate(427,390)"/>
<path d="M0 0 C0.99 0.33 1.98 0.66 3 1 C2.01 3.97 1.02 6.94 0 10 C-0.66 10 -1.32 10 -2 10 C-1.125 2.25 -1.125 2.25 0 0 Z " fill="#111111" transform="translate(333,306)"/>
<path d="M0 0 C0.99 0.33 1.98 0.66 3 1 C2.01 3.97 1.02 6.94 0 10 C-0.66 9.67 -1.32 9.34 -2 9 C-1.51421457 5.87709365 -1.0013988 3.00419641 0 0 Z " fill="#101010" transform="translate(229,596)"/>
<path d="M0 0 C0.33 0 0.66 0 1 0 C1.66 3.96 2.32 7.92 3 12 C2.01 11.67 1.02 11.34 0 11 C-1.125 3.375 -1.125 3.375 0 0 Z " fill="#191818" transform="translate(434,420)"/>
<path d="M0 0 C0.66 0.33 1.32 0.66 2 1 C1.34 3.97 0.68 6.94 0 10 C-0.66 10 -1.32 10 -2 10 C-1.34 6.7 -0.68 3.4 0 0 Z " fill="#121111" transform="translate(247,546)"/>
<path d="M0 0 C2.12046792 3.53411321 2.53199289 6.94393835 3 11 C2.01 10.67 1.02 10.34 0 10 C-1.125 2.25 -1.125 2.25 0 0 Z " fill="#141313" transform="translate(450,492)"/>
<path d="M0 0 C0.99 0.33 1.98 0.66 3 1 C3.33 3.31 3.66 5.62 4 8 C3.01 7.67 2.02 7.34 1 7 C0.67 4.69 0.34 2.38 0 0 Z " fill="#0F0E0F" transform="translate(513,312)"/>
<path d="M0 0 C0.99 0.33 1.98 0.66 3 1 C2.34 2.98 1.68 4.96 1 7 C0.34 7 -0.32 7 -1 7 C-1.04254356 5.00045254 -1.04080783 2.99958364 -1 1 C-0.67 0.67 -0.34 0.34 0 0 Z " fill="#0F0F0F" transform="translate(182,727)"/>
<path d="M0 0 C0.66 0 1.32 0 2 0 C1.67 2.31 1.34 4.62 1 7 C0.01 7 -0.98 7 -2 7 C-1.34 4.69 -0.68 2.38 0 0 Z " fill="#101010" transform="translate(196,688)"/>
<path d="M0 0 C0.99 0.33 1.98 0.66 3 1 C3.33 2.98 3.66 4.96 4 7 C3.01 7 2.02 7 1 7 C0.67 4.69 0.34 2.38 0 0 Z " fill="#10100F" transform="translate(542,432)"/>
</svg>
